<!-- ScamPrep lockup: the Open Ring + wordmark, for INK backgrounds (paper ring and wordmark).
     Wordmark is Manrope 800 at -0.03em, converted to outlines. Amber center is constant. -->
<svg xmlns="http://www.w3.org/2000/svg" viewBox="0 0 197.1 40" width="394" height="80" role="img" aria-label="ScamPrep" xmlns:c2pa="http://c2pa.org/manifest"><metadata><c2pa:manifest>AAAWgmp1bWIAAAAeanVtZGMycGEAEQAQgAAAqgA4m3EDYzJwYQAAABZcanVtYgAAAEdqdW1kYzJtYQARABCAAACqADibcQN1cm46YzJwYTpjODcyNGZkYS0zNzE1LTRkNDQtYmVmNy1mZjEwYTdlYWEzMjgAAAADl2p1bWIAAAApanVtZGMyYXMAEQAQgAAAqgA4m3EDYzJwYS5hc3NlcnRpb25zAAAAALxqdW1iAAAARGp1bWRjYm9yABEAEIAAAKoAOJtxE2MycGEuaW5ncmVkaWVudC52MwAAAAAYYzJzaGIWp4usyClhCb09uf9WG/EAAABwY2JvcqNpZGM6Zm9ybWF0bWltYWdlL3N2Zyt4bWxqaW5zdGFuY2VJRHgseG1wOmlpZDpkODk2ODM1NC1mNjhkLTRkN2EtYjQ3Mi0xN2YzYTc4ZDg5ODVscmVsYXRpb25zaGlwaHBhcmVudE9mAAAB4mp1bWIAAABBanVtZGNib3IAEQAQgAAAqgA4m3ETYzJwYS5hY3Rpb25zLnYyAAAAABhjMnNo4sh/2o4WfG3PomSUXZhXigAAAZljYm9yomdhY3Rpb25zgqJmYWN0aW9ua2MycGEub3BlbmVkanBhcmFtZXRlcnOha2luZ3JlZGllbnRzgaJjdXJseC1zZWxmI2p1bWJmPWMycGEuYXNzZXJ0aW9ucy9jMnBhLmluZ3JlZGllbnQudjNkaGFzaFggNjhe9avwXB1evZWenkO2/lPSLb51tA/TiCtH23CfO0GkZmFjdGlvbngdY29tLmFudGhyb3BpYy5jbGF1ZGUucHJvdmlkZWRqcGFyYW1ldGVyc6F4H2NvbS5hbnRocm9waWMub3JpZ2luLWNvbmZpZGVuY2VndW5rbm93bmtkZXNjcmlwdGlvbnhmQ2xhdWRlIHByb3ZpZGVkIHRoaXMgZmlsZSBhdCB0aGUgcmVxdWVzdCBvZiBhIHVzZXIgYW5kIG1heSBoYXZlIGNyZWF0ZWQgb3IgbW9kaWZpZWQgdGhlIGZpbGUgY29udGVudHMubXNvZnR3YXJlQWdlbnShZG5hbWVmQ2xhdWRlcmFsbEFjdGlvbnNJbmNsdWRlZPUAAADIanVtYgAAAEBqdW1kY2JvcgARABCAAACqADibcRNjMnBhLmhhc2guZGF0YQAAAAAYYzJzaMQiN3WUCkXiNPIDH00HHi0AAACAY2JvcqVjYWxnZnNoYTI1NmNwYWRMAAAAAAAAAAAAAAAAZGhhc2hYINLDzQvWdhACghitDi2uGDM4zzjfczF6obA7zzMMF+nqZG5hbWVuanVtYmYgbWFuaWZlc3RqZXhjbHVzaW9uc4GiZXN0YXJ0GQF0Zmxlbmd0aBkeBAAAAj5qdW1iAAAAJ2p1bWRjMmNsABEAEIAAAKoAOJtxA2MycGEuY2xhaW0udjIAAAACD2Nib3KlY2FsZ2ZzaGEyNTZpc2lnbmF0dXJleE1zZWxmI2p1bWJmPS9jMnBhL3VybjpjMnBhOmM4NzI0ZmRhLTM3MTUtNGQ0NC1iZWY3LWZmMTBhN2VhYTMyOC9jMnBhLnNpZ25hdHVyZWppbnN0YW5jZUlEeCx4bXA6aWlkOmEyMGM5NjliLTM4Y2UtNDBkNS1hYTdjLTIxZjIxODNhMTk3YnJjcmVhdGVkX2Fzc2VydGlvbnODomN1cmx4LXNlbGYjanVtYmY9YzJwYS5hc3NlcnRpb25zL2MycGEuaW5ncmVkaWVudC52M2RoYXNoWCA2OF71q/BcHV69lZ6eQ7b+U9ItvnW0D9OIK0fbcJ87QaJjdXJseCpzZWxmI2p1bWJmPWMycGEuYXNzZXJ0aW9ucy9jMnBhLmFjdGlvbnMudjJkaGFzaFggm1hgS3wTJCecTmMMSQ9myhuroxL8Ke+o+qvT1I8LsI+iY3VybHgpc2VsZiNqdW1iZj1jMnBhLmFzc2VydGlvbnMvYzJwYS5oYXNoLmRhdGFkaGFzaFgg0kex2u/yzukkS7LADwz3+Fc3B+lEZXRDalvF4eMtz1Z0Y2xhaW1fZ2VuZXJhdG9yX2luZm+jZG5hbWVvQW50aHJvcGljIEZpbGVzZ3ZlcnNpb25lMS4wLjBrc3BlY1ZlcnNpb25lMi40LjAAABA4anVtYgAAAChqdW1kYzJjcwARABCAAACqADibcQNjMnBhLnNpZ25hdHVyZQAAABAIY2JvctKEWQISogEmGCFZAgowggIGMIIBjaADAgECAhRA5aAK7sI50L64g/oGQgU9Z1UTADAKBggqhkjOPQQDAzBJMRcwFQYDVQQKEw5BbnRocm9waWMsIFBCQzEuMCwGA1UEAxMlQW50aHJvcGljIENvbnRlbnQgQ3JlZGVudGlhbHMgUm9vdCBDQTAeFw0yNjA4MDcxODQzNTZaFw0yODA4MDYxOTQzNTZaMEQxFzAVBgNVBAoTDkFudGhyb3BpYywgUEJDMSkwJwYDVQQDEyBBbnRocm9waWMgQ2xhdWRlIENvbnRlbnQgU2lnbmluZzBZMBMGByqGSM49AgEGCCqGSM49AwEHA0IABJh6CmvLUBgFFNU0vUKlOVtE6djd17L5SuwX0LemFisBM3dkd/3cyjxFA3Qo5S46fX0/ihY0VZ7mfb9KF703t5OjWDBWMA4GA1UdDwEB/wQEAwIHgDAVBgNVHSUEDjAMBgorBgEEAYPoXgIBMAwGA1UdEwEB/wQCMAAwHwYDVR0jBBgwFoAUzlHiBIFOZFsj+OPEz5o+nMHXXMIwCgYIKoZIzj0EAwMDZwAwZAIwMXMdFJ4BetLLVY7ORuE9noqbbAZOZn/aArXyTwFAZfKrPzxF2vPoJNf1+UCdg1XGAjBwX1zd9WGqYkqmL5SFqw1QySjr1zJfpJM9+1rdDwSPLMOPOjKuiXjoU/pUUeG9RwmhY3BhZFkNngAAAAAAAAAAAAAAAAAAAAAAAAAAAAAAAAAAAAAAAAAAAAAAAAAAAAAAAAAAAAAAAAAAAAAAAAAAAAAAAAAAAAAAAAAAAAAAAAAAAAAAAAAAAAAAAAAAAAAAAAAAAAAAAAAAAAAAAAAAAAAAAAAAAAAAAAAAAAAAAAAAAAAAAAAAAAAAAAAAAAAAAAAAAAAAAAAAAAAAAAAAAAAAAAAAAAAAAAAAAAAAAAAAAAAAAAAAAAAAAAAAAAAAAAAAAAAAAAAAAAAAAAAAAAAAAAAAAAAAAAAAAAAAAAAAAAAAAAAAAAAAAAAAAAAAAAAAAAAAAAAAAAAAAAAAAAAAAAAAAAAAAAAAAAAAAAAAAAAAAAAAAAAAAAAAAAAAAAAAAAAAAAAAAAAAAAAAAAAAAAAAAAAAAAAAAAAAAAAAAAAAAAAAAAAAAAAAAAAAAAAAAAAAAAAAAAAAAAAAAAAAAAAAAAAAAAAAAAAAAAAAAAAAAAAAAAAAAAAAAAAAAAAAAAAAAAAAAAAAAAAAAAAAAAAAAAAAAAAAAAAAAAAAAAAAAAAAAAAAAAAAAAAAAAAAAAAAAAAAAAAAAAAAAAAAAAAAAAAAAAAAAAAAAAAAAAAAAAAAAAAAAAAAAAAAAAAAAAAAAAAAAAAAAAAAAAAAAAAAAAAAAAAAAAAAAAAAAAAAAAAAAAAAAAAAAAAAAAAAAAAAAAAAAAAAAAAAAAAAAAAAAAAAAAAAAAAAAAAAAAAAAAAAAAAAAAAAAAAAAAAAAAAAAAAAAAAAAAAAAAAAAAAAAAAAAAAAAAAAAAAAAAAAAAAAAAAAAAAAAAAAAAAAAAAAAAAAAAAAAAAAAAAAAAAAAAAAAAAAAAAAAAAAAAAAAAAAAAAAAAAAAAAAAAAAAAAAAAAAAAAAAAAAAAAAAAAAAAAAAAAAAAAAAAAAAAAAAAAAAAAAAAAAAAAAAAAAAAAAAAAAAAAAAAAAAAAAAAAAAAAAAAAAAAAAAAAAAAAAAAAAAAAAAAAAAAAAAAAAAAAAAAAAAAAAAAAAAAAAAAAAAAAAAAAAAAAAAAAAAAAAAAAAAAAAAAAAAAAAAAAAAAAAAAAAAAAAAAAAAAAAAAAAAAAAAAAAAAAAAAAAAAAAAAAAAAAAAAAAAAAAAAAAAAAAAAAAAAAAAAAAAAAAAAAAAAAAAAAAAAAAAAAAAAAAAAAAAAAAAAAAAAAAAAAAAAAAAAAAAAAAAAAAAAAAAAAAAAAAAAAAAAAAAAAAAAAAAAAAAAAAAAAAAAAAAAAAAAAAAAAAAAAAAAAAAAAAAAAAAAAAAAAAAAAAAAAAAAAAAAAAAAAAAAAAAAAAAAAAAAAAAAAAAAAAAAAAAAAAAAAAAAAAAAAAAAAAAAAAAAAAAAAAAAAAAAAAAAAAAAAAAAAAAAAAAAAAAAAAAAAAAAAAAAAAAAAAAAAAAAAAAAAAAAAAAAAAAAAAAAAAAAAAAAAAAAAAAAAAAAAAAAAAAAAAAAAAAAAAAAAAAAAAAAAAAAAAAAAAAAAAAAAAAAAAAAAAAAAAAAAAAAAAAAAAAAAAAAAAAAAAAAAAAAAAAAAAAAAAAAAAAAAAAAAAAAAAAAAAAAAAAAAAAAAAAAAAAAAAAAAAAAAAAAAAAAAAAAAAAAAAAAAAAAAAAAAAAAAAAAAAAAAAAAAAAAAAAAAAAAAAAAAAAAAAAAAAAAAAAAAAAAAAAAAAAAAAAAAAAAAAAAAAAAAAAAAAAAAAAAAAAAAAAAAAAAAAAAAAAAAAAAAAAAAAAAAAAAAAAAAAAAAAAAAAAAAAAAAAAAAAAAAAAAAAAAAAAAAAAAAAAAAAAAAAAAAAAAAAAAAAAAAAAAAAAAAAAAAAAAAAAAAAAAAAAAAAAAAAAAAAAAAAAAAAAAAAAAAAAAAAAAAAAAAAAAAAAAAAAAAAAAAAAAAAAAAAAAAAAAAAAAAAAAAAAAAAAAAAAAAAAAAAAAAAAAAAAAAAAAAAAAAAAAAAAAAAAAAAAAAAAAAAAAAAAAAAAAAAAAAAAAAAAAAAAAAAAAAAAAAAAAAAAAAAAAAAAAAAAAAAAAAAAAAAAAAAAAAAAAAAAAAAAAAAAAAAAAAAAAAAAAAAAAAAAAAAAAAAAAAAAAAAAAAAAAAAAAAAAAAAAAAAAAAAAAAAAAAAAAAAAAAAAAAAAAAAAAAAAAAAAAAAAAAAAAAAAAAAAAAAAAAAAAAAAAAAAAAAAAAAAAAAAAAAAAAAAAAAAAAAAAAAAAAAAAAAAAAAAAAAAAAAAAAAAAAAAAAAAAAAAAAAAAAAAAAAAAAAAAAAAAAAAAAAAAAAAAAAAAAAAAAAAAAAAAAAAAAAAAAAAAAAAAAAAAAAAAAAAAAAAAAAAAAAAAAAAAAAAAAAAAAAAAAAAAAAAAAAAAAAAAAAAAAAAAAAAAAAAAAAAAAAAAAAAAAAAAAAAAAAAAAAAAAAAAAAAAAAAAAAAAAAAAAAAAAAAAAAAAAAAAAAAAAAAAAAAAAAAAAAAAAAAAAAAAAAAAAAAAAAAAAAAAAAAAAAAAAAAAAAAAAAAAAAAAAAAAAAAAAAAAAAAAAAAAAAAAAAAAAAAAAAAAAAAAAAAAAAAAAAAAAAAAAAAAAAAAAAAAAAAAAAAAAAAAAAAAAAAAAAAAAAAAAAAAAAAAAAAAAAAAAAAAAAAAAAAAAAAAAAAAAAAAAAAAAAAAAAAAAAAAAAAAAAAAAAAAAAAAAAAAAAAAAAAAAAAAAAAAAAAAAAAAAAAAAAAAAAAAAAAAAAAAAAAAAAAAAAAAAAAAAAAAAAAAAAAAAAAAAAAAAAAAAAAAAAAAAAAAAAAAAAAAAAAAAAAAAAAAAAAAAAAAAAAAAAAAAAAAAAAAAAAAAAAAAAAAAAAAAAAAAAAAAAAAAAAAAAAAAAAAAAAAAAAAAAAAAAAAAAAAAAAAAAAAAAAAAAAAAAAAAAAAAAAAAAAAAAAAAAAAAAAAAAAAAAAAAAAAAAAAAAAAAAAAAAAAAAAAAAAAAAAAAAAAAAAAAAAAAAAAAAAAAAAAAAAAAAAAAAAAAAAAAAAAAAAAAAAAAAAAAAAAAAAAAAAAAAAAAAAAAAAAAAAAAAAAAAAAAAAAAAAAAAAAAAAAAAAAAAAAAAAAAAAAAAAAAAAAAAAAAAAAAAAAAAAAAAAAAAAAAAAAAAAAAAAAAAAAAAAAAAAAAAAAAAAAAAAAAAAAAAAAAAAAAAAAAAAAAAAAAAAAAAAAAAAAAAAAAAAAAAAAAAAAAAAAAAAAAAAAAAAAAAAAAAAAAAAAAAAAAAAAAAAAAAAAAAAAAAAAAAAAAAAAAAAAAAAAAAAAAAAAAAAAAAAAAAAAAAAAAAAAAAAAAAAAAAAAAAAAAAAAAAAAAAAAAAAAAAAAAAAAAAAAAAAAAAAAAAAAAAAAAAAAAAAAAAAAAAAAAAAAAAAAAAAAAAAAAAAAAAAAAAAAAAAAAAAAAAAAAAAAAAAAAAAAAAAAAAAAAAAAAAAAAAAAAAAAAAAAAAAAAAAAAAAAAAAAAAAAAAAAAAAAAAAAAAAAAAAAAAAAAAAAAAAAAAAAAAAAAAAAAAAAAAAAAAAAAAAAAAAAAAAAAAAAAAAAAAAAAAAAAAAAAAAAAAAAAAAAAAAAAAAAAAAAAAAAAAAAAAAAAAAAAAAAAAAAAAAAAAAAAAAAAAAAAAAAAAAAAAAAAAAAAAAAAAAAAAAAAAAAAAAAAAAAAAAAAAAAAAAAAAAAAAAAAAAAAAAAAAAAAAAAAAAAAAAAAAAAAAAAAAAAAAAAAAAAAAAAAAAAAAAAAAAAAAAAAAAAAAAAAAAAAAAAAAAAAAAAAAAAAAAAAAAAAAAAAAAAAAAAAAAAAAAAAAAAAAAAAAAAAAAAAAAAAAAAAAAAAAAAAAAAAAAAAAAAAAAAAAAAAAAAAAAAAAAAAAAAAAAAAAAAAAAAAAAAAAAAAAAAAAAAAAAAAAAAAAAAAAAAAAAAAAAAAAAAAAAAAAAAAAAAAAAAAAAAAAAAAAAAAAAAAAAAAAAAAAAAAAAAAAAAAAAAAAAAAAAAAAAAAAAAAAAAAAAAAAAAAAAAAAAAAAAAAAAAAAAAAAAAAAAAAAAAAAAAAAAAAAAAAAAAAAAAAAAAAAAAAAAAAAAAAAAAAAAAAAAAAAAAAAAAAAAAAAAAAAAAAAAAAAAAAAAAAAAAAAAAAAAAAAAAAAAAAAAAAAAAAAAAAAAAAAAAAAAAAAAAAAAAAAAAAAAAAAAAAAAAAAAAAAAAAAAAAAAAAAAAAAAAAAAAAAAAAAAAAAAAAAAAAAAAAAAAAAAAAAAAAAAAAAAAAAAAAAAAAAAAAAAAAAAAAAAAAAAAAAAAAAAAAAAAAAAAAAAAAAAAAAAAAAAAAAAAAAAAAAAAAAAAAAAAAAAAAAAAAAAAAAAAAAAAAAAAAAAAAAAAAAAAAAAAAAAAAAAAAAAAAAAAAAAAAAAAAAAAAAAAAAAAAAAAAAAAAAAAAAAAAAAAAAAAAAAAAAAAAAAAAAAAAAAAAAAAAAAAAAAAAAAAAAAAAAAAAAAAAAAAAAAAAAAAAAAAAAAAAAAAAAAAAAAAAAAAAAAAAAAAAAAAAAAAAAAAAAAAAAAAAAAAAAAAAAAAAAAAAAAAAAAAAAAAAAAAAAAAAAAAAAAPZYQPUwVM94PN/pWBJGzf7TCdT+rmXkgdKcNqUVnqOnb98trCJqEg4AtB5DNtnGzkHQeDhcBB3QBWDl8oKTRyrZX60=</c2pa:manifest></metadata>
  <g transform="scale(0.5263) translate(-10 -10)"><path d="M 57.02 19.39 A 30 30 0 1 0 76.61 38.98" fill="none" stroke="#f8f7f4" stroke-width="8.5" stroke-linecap="round"/><circle cx="48" cy="48" r="11" fill="#f0a11c"/></g>
  <path transform="translate(51 30.80)" d="M10.26 0.45Q7.86 0.45 5.93 -0.4Q4 -1.24 2.77 -2.83Q1.53 -4.41 1.2 -6.6L5.46 -7.23Q5.91 -5.37 7.32 -4.37Q8.73 -3.36 10.53 -3.36Q11.54 -3.36 12.48 -3.67Q13.42 -3.99 14.03 -4.6Q14.64 -5.22 14.64 -6.12Q14.64 -6.45 14.54 -6.76Q14.45 -7.06 14.22 -7.33Q13.99 -7.6 13.58 -7.84Q13.17 -8.08 12.54 -8.28L6.93 -9.93Q6.3 -10.11 5.47 -10.44Q4.63 -10.77 3.85 -11.38Q3.07 -12 2.56 -13.01Q2.04 -14.03 2.04 -15.57Q2.04 -17.75 3.13 -19.19Q4.23 -20.62 6.06 -21.33Q7.89 -22.04 10.11 -22.02Q12.34 -21.99 14.1 -21.25Q15.85 -20.52 17.04 -19.12Q18.22 -17.71 18.75 -15.69L14.34 -14.94Q14.1 -15.99 13.45 -16.71Q12.81 -17.43 11.92 -17.8Q11.03 -18.18 10.05 -18.21Q9.09 -18.24 8.24 -17.95Q7.39 -17.65 6.86 -17.1Q6.33 -16.54 6.33 -15.78Q6.33 -15.07 6.76 -14.63Q7.2 -14.19 7.86 -13.92Q8.52 -13.65 9.21 -13.47L12.96 -12.45Q13.8 -12.22 14.82 -11.86Q15.84 -11.49 16.78 -10.84Q17.71 -10.19 18.32 -9.12Q18.93 -8.05 18.93 -6.42Q18.93 -4.68 18.2 -3.38Q17.47 -2.08 16.24 -1.24Q15.01 -0.39 13.46 0.03Q11.91 0.45 10.26 0.45Z M28.47 0.45Q25.95 0.45 24.15 -0.67Q22.35 -1.8 21.39 -3.73Q20.43 -5.67 20.43 -8.1Q20.43 -10.56 21.43 -12.49Q22.43 -14.43 24.24 -15.54Q26.05 -16.65 28.53 -16.65Q31.39 -16.65 33.34 -15.2Q35.28 -13.75 35.82 -11.25L31.74 -10.17Q31.38 -11.43 30.49 -12.13Q29.59 -12.84 28.47 -12.84Q27.18 -12.84 26.36 -12.22Q25.53 -11.59 25.14 -10.52Q24.75 -9.45 24.75 -8.1Q24.75 -5.98 25.69 -4.67Q26.62 -3.36 28.47 -3.36Q29.85 -3.36 30.57 -3.99Q31.29 -4.62 31.65 -5.79L35.82 -4.92Q35.13 -2.34 33.21 -0.94Q31.29 0.45 28.47 0.45Z M42.42 0.45Q40.68 0.45 39.47 -0.22Q38.27 -0.89 37.64 -2Q37.02 -3.12 37.02 -4.47Q37.02 -5.59 37.37 -6.53Q37.71 -7.46 38.48 -8.17Q39.26 -8.88 40.56 -9.36Q41.46 -9.69 42.7 -9.95Q43.95 -10.2 45.53 -10.43Q47.1 -10.66 48.99 -10.95L47.52 -10.14Q47.52 -11.58 46.83 -12.25Q46.14 -12.93 44.52 -12.93Q43.62 -12.93 42.64 -12.49Q41.67 -12.06 41.28 -10.95L37.59 -12.12Q38.2 -14.13 39.9 -15.39Q41.59 -16.65 44.52 -16.65Q46.66 -16.65 48.33 -15.99Q49.99 -15.33 50.85 -13.71Q51.33 -12.81 51.42 -11.91Q51.51 -11.01 51.51 -9.9V0H47.94V-3.33L48.45 -2.64Q47.27 -1 45.89 -0.28Q44.52 0.45 42.42 0.45ZM43.29 -2.76Q44.41 -2.76 45.19 -3.16Q45.96 -3.55 46.42 -4.06Q46.88 -4.58 47.04 -4.92Q47.36 -5.58 47.41 -6.46Q47.46 -7.33 47.46 -7.92L48.66 -7.62Q46.84 -7.32 45.72 -7.12Q44.59 -6.92 43.91 -6.75Q43.22 -6.58 42.69 -6.39Q42.09 -6.15 41.72 -5.87Q41.36 -5.59 41.18 -5.26Q41.01 -4.93 41.01 -4.53Q41.01 -3.97 41.29 -3.58Q41.56 -3.18 42.08 -2.97Q42.59 -2.76 43.29 -2.76Z M74.01 0V-9.57Q74.01 -11.17 73.25 -12.07Q72.5 -12.96 71.16 -12.96Q70.3 -12.96 69.67 -12.56Q69.04 -12.16 68.69 -11.45Q68.34 -10.74 68.34 -9.81L66.63 -10.95Q66.63 -12.62 67.42 -13.89Q68.2 -15.16 69.53 -15.88Q70.86 -16.59 72.48 -16.59Q75.25 -16.59 76.67 -14.95Q78.09 -13.3 78.09 -10.65V0ZM54.48 0V-16.2H58.08V-10.83H58.59V0ZM64.26 0V-9.57Q64.26 -11.17 63.5 -12.07Q62.74 -12.96 61.41 -12.96Q60.13 -12.96 59.36 -12.08Q58.59 -11.21 58.59 -9.81L56.88 -11.01Q56.88 -12.6 57.67 -13.86Q58.47 -15.12 59.81 -15.86Q61.15 -16.59 62.82 -16.59Q64.72 -16.59 65.95 -15.78Q67.17 -14.97 67.75 -13.62Q68.34 -12.27 68.34 -10.65V0Z M81.09 0V-21.6H90.21Q90.52 -21.6 91.06 -21.58Q91.59 -21.55 92.01 -21.48Q93.94 -21.18 95.18 -20.2Q96.42 -19.23 97 -17.75Q97.59 -16.27 97.59 -14.46Q97.59 -12.64 97 -11.17Q96.41 -9.69 95.17 -8.71Q93.93 -7.74 92.01 -7.44Q91.59 -7.38 91.05 -7.35Q90.51 -7.32 90.21 -7.32H85.17V0ZM85.17 -11.13H90.03Q90.34 -11.13 90.72 -11.16Q91.09 -11.19 91.41 -11.28Q92.23 -11.5 92.69 -12.04Q93.13 -12.57 93.31 -13.22Q93.48 -13.88 93.48 -14.46Q93.48 -15.04 93.31 -15.7Q93.13 -16.35 92.69 -16.88Q92.23 -17.41 91.41 -17.64Q91.09 -17.73 90.72 -17.76Q90.34 -17.79 90.03 -17.79H85.17Z M99.69 0V-16.2H103.29V-12.24L102.9 -12.75Q103.22 -13.59 103.74 -14.28Q104.27 -14.97 105.03 -15.42Q105.62 -15.78 106.31 -15.98Q107 -16.18 107.73 -16.24Q108.47 -16.29 109.2 -16.2V-12.39Q108.53 -12.6 107.63 -12.53Q106.74 -12.46 106.02 -12.12Q105.3 -11.79 104.81 -11.24Q104.31 -10.7 104.06 -9.95Q103.8 -9.21 103.8 -8.28V0Z M118.68 0.45Q116.19 0.45 114.29 -0.62Q112.39 -1.69 111.32 -3.58Q110.25 -5.46 110.25 -7.89Q110.25 -10.54 111.3 -12.51Q112.35 -14.47 114.19 -15.56Q116.04 -16.65 118.44 -16.65Q120.99 -16.65 122.78 -15.45Q124.56 -14.25 125.41 -12.07Q126.27 -9.9 126.02 -6.96H121.98V-8.46Q121.98 -10.93 121.19 -12.02Q120.41 -13.11 118.62 -13.11Q116.53 -13.11 115.55 -11.84Q114.57 -10.57 114.57 -8.1Q114.57 -5.83 115.55 -4.6Q116.53 -3.36 118.44 -3.36Q119.64 -3.36 120.5 -3.88Q121.35 -4.41 121.8 -5.4L125.88 -4.23Q124.97 -2.01 122.99 -0.78Q121.02 0.45 118.68 0.45ZM113.31 -6.96V-9.99H124.05V-6.96Z M136.44 0.45Q134.03 0.45 132.41 -0.67Q130.78 -1.8 129.97 -3.73Q129.15 -5.67 129.15 -8.1Q129.15 -10.53 129.96 -12.46Q130.77 -14.4 132.34 -15.52Q133.92 -16.65 136.23 -16.65Q138.56 -16.65 140.28 -15.54Q142 -14.43 142.96 -12.5Q143.91 -10.57 143.91 -8.1Q143.91 -5.67 142.97 -3.73Q142.03 -1.8 140.36 -0.67Q138.68 0.45 136.44 0.45ZM128.46 7.2V-16.2H132.06V-5.1H132.57V7.2ZM135.78 -3.18Q137.1 -3.18 137.94 -3.84Q138.78 -4.5 139.19 -5.62Q139.59 -6.73 139.59 -8.1Q139.59 -9.45 139.17 -10.57Q138.75 -11.68 137.87 -12.35Q137 -13.02 135.63 -13.02Q134.35 -13.02 133.57 -12.4Q132.78 -11.79 132.42 -10.68Q132.06 -9.57 132.06 -8.1Q132.06 -6.63 132.42 -5.52Q132.78 -4.41 133.6 -3.79Q134.41 -3.18 135.78 -3.18Z" fill="#f8f7f4"/>
</svg>
